<?xml version="1.0" standalone="no"?>
<!DOCTYPE svg PUBLIC "-//W3C//DTD SVG 20010904//EN"
 "http://www.w3.org/TR/2001/REC-SVG-20010904/DTD/svg10.dtd">
<svg version="1.0" xmlns="http://www.w3.org/2000/svg"
 width="552.000000pt" height="552.000000pt" viewBox="0 0 552.000000 552.000000"
 preserveAspectRatio="xMidYMid meet">
<metadata>
Created by potrace 1.11, written by Peter Selinger 2001-2013
</metadata>
<g transform="translate(0.000000,552.000000) scale(0.100000,-0.100000)"
fill="#000000" stroke="none">
<path d="M0 2760 l0 -2760 2760 0 2760 0 0 2760 0 2760 -2760 0 -2760 0 0
-2760z m2932 1155 c950 -580 1727 -1062 1746 -1081 25 -27 32 -42 32 -75 0
-34 -6 -47 -33 -73 -18 -17 -265 -172 -548 -345 -283 -173 -1047 -641 -1699
-1040 -652 -399 -1204 -732 -1227 -740 -38 -14 -45 -14 -77 1 -26 13 -38 27
-46 55 -8 27 -10 646 -8 2171 l3 2134 29 25 c61 53 -32 105 1828 -1032z"/>
</g>
</svg>
